<svg xmlns="http://www.w3.org/2000/svg" width="46" height="44" fill="none"><path fill="#8A8BA4" d="M34.982 9.303A12.285 12.285 0 0 0 11.15 9.29a12.3 12.3 0 0 0 1.153 24.547h4.612a1.538 1.538 0 0 0 0-3.075h-4.612a9.225 9.225 0 1 1-.054-18.45 1.596 1.596 0 0 0 1.691-1.313 9.211 9.211 0 0 1 18.238 0 1.66 1.66 0 0 0 1.65 1.313 9.225 9.225 0 1 1 0 18.45h-4.613a1.538 1.538 0 1 0 0 3.075h4.613a12.3 12.3 0 0 0 1.153-24.533Z"/><path fill="#8A8BA4" d="M29.667 27.312a1.538 1.538 0 0 0 2.174-2.174l-7.688-7.688a1.537 1.537 0 0 0-2.174 0l-7.687 7.688a1.538 1.538 0 0 0 2.174 2.174l5.063-5.063v19.35a1.537 1.537 0 0 0 3.075 0V22.25l5.063 5.063Z"/></svg>